<?xml version="1.0" encoding="UTF-8"?>
<svg id="outline" xmlns="http://www.w3.org/2000/svg" viewBox="0 0 644.51 346.02">
  <defs>
    <style>
      .cls-1 {
        font-family: MyriadPro-Regular, 'Myriad Pro';
        font-size: 12px;
      }

      .cls-2, .cls-3 {
        fill: none;
        stroke: #000;
        stroke-miterlimit: 10;
      }

      .cls-3 {
        stroke-width: 2px;
      }

      .cls-4 {
        letter-spacing: 0em;
      }

      .cls-5 {
        letter-spacing: -.01em;
      }

      .cls-6 {
        letter-spacing: 0em;
      }
    </style>
  </defs>
  <line class="cls-3" x1="163.02" y1="138.1" x2="272.47" y2="138.1"/>
  <line class="cls-3" x1="241.51" y1="107.96" x2="256.04" y2="107.96"/>
  <line class="cls-3" x1="256.04" y1="97.55" x2="256.04" y2="107.96"/>
  <line class="cls-3" x1="349.05" y1="97.55" x2="256.04" y2="97.55"/>
  <line class="cls-3" x1="349.05" y1="70.89" x2="349.05" y2="136.15"/>
  <line class="cls-3" x1="163.02" y1="138.1" x2="163.02" y2="187.75"/>
  <line class="cls-2" x1="200.75" y1="151.54" x2="200.75" y2="187.75"/>
  <line class="cls-2" x1="237.61" y1="152.19" x2="200.75" y2="152.19"/>
  <line class="cls-2" x1="237.61" y1="187.75" x2="237.61" y2="152.19"/>
  <line class="cls-3" x1="200.75" y1="187.75" x2="256.04" y2="187.75"/>
  <line class="cls-3" x1="163.02" y1="187.75" x2="200.75" y2="187.75"/>
  <line class="cls-3" x1="256.04" y1="187.75" x2="256.04" y2="234.8"/>
  <line class="cls-3" x1="349.05" y1="236.1" x2="256.04" y2="236.1"/>
  <line class="cls-3" x1="349.05" y1="285.53" x2="349.05" y2="236.1"/>
  <line class="cls-3" x1="427.75" y1="285.53" x2="349.05" y2="285.53"/>
  <line class="cls-3" x1="427.75" y1="325.21" x2="427.75" y2="285.53"/>
  <line class="cls-3" x1="519.46" y1="325.21" x2="427.75" y2="325.21"/>
  <line class="cls-3" x1="519.46" y1="338.87" x2="519.46" y2="301.58"/>
  <line class="cls-3" x1="505.15" y1="301.58" x2="519.46" y2="301.58"/>
  <line class="cls-3" x1="505.15" y1="282.93" x2="505.15" y2="301.58"/>
  <line class="cls-3" x1="549.6" y1="284.23" x2="505.15" y2="284.23"/>
  <line class="cls-3" x1="549.6" y1="16.48" x2="549.6" y2="284.23"/>
  <line class="cls-3" x1="426.09" y1="16.48" x2="549.6" y2="16.48"/>
  <line class="cls-3" x1="426.09" y1="71.78" x2="426.09" y2="16.48"/>
  <line class="cls-3" x1="349.05" y1="70.89" x2="426.09" y2="70.89"/>
  <line class="cls-2" x1="468.91" y1="16.48" x2="468.91" y2="50.77"/>
  <line class="cls-2" x1="505.15" y1="16.48" x2="505.15" y2="51.56"/>
  <line class="cls-2" x1="468.91" y1="50.77" x2="505.15" y2="50.77"/>
  <line class="cls-2" x1="426.09" y1="71.78" x2="426.09" y2="99.22"/>
  <line class="cls-2" x1="457.8" y1="61.3" x2="457.8" y2="100.2"/>
  <line class="cls-2" x1="468.91" y1="50.77" x2="468.91" y2="61.3"/>
  <line class="cls-2" x1="457.8" y1="61.3" x2="505.15" y2="61.3"/>
  <line class="cls-2" x1="426.09" y1="99.22" x2="426.09" y2="189.5"/>
  <line class="cls-2" x1="549.6" y1="189.5" x2="426.09" y2="189.5"/>
  <line class="cls-2" x1="549.6" y1="100.2" x2="426.09" y2="100.2"/>
  <line class="cls-2" x1="505.15" y1="100.2" x2="505.15" y2="61.3"/>
  <line class="cls-2" x1="516.27" y1="100.2" x2="516.27" y2="82.59"/>
  <line class="cls-2" x1="549.6" y1="82.59" x2="516.27" y2="82.59"/>
  <line class="cls-2" x1="549.6" y1="73.29" x2="516.27" y2="73.29"/>
  <line class="cls-2" x1="516.27" y1="50.77" x2="516.27" y2="73.29"/>
  <line class="cls-2" x1="505.15" y1="50.77" x2="516.27" y2="50.77"/>
  <line class="cls-2" x1="349.05" y1="236.1" x2="349.05" y2="213.72"/>
  <line class="cls-2" x1="427.75" y1="213.72" x2="427.75" y2="285.53"/>
  <line class="cls-2" x1="349.05" y1="213.72" x2="427.75" y2="213.72"/>
  <line class="cls-2" x1="470.46" y1="284.23" x2="470.46" y2="325.21"/>
  <line class="cls-2" x1="505.15" y1="284.23" x2="470.46" y2="284.23"/>
  <line class="cls-2" x1="505.15" y1="325.21" x2="505.15" y2="301.58"/>
  <line class="cls-2" x1="482.01" y1="294.71" x2="482.01" y2="313.39"/>
  <line class="cls-2" x1="493.85" y1="294.71" x2="493.85" y2="313.39"/>
  <line class="cls-2" x1="482.01" y1="313.39" x2="493.85" y2="313.39"/>
  <line class="cls-2" x1="482.01" y1="294.71" x2="493.85" y2="294.71"/>
  <line class="cls-2" x1="493.85" y1="313.39" x2="504.48" y2="313.39"/>
  <line class="cls-2" x1="494.62" y1="310.76" x2="505.15" y2="310.76"/>
  <line class="cls-2" x1="494.62" y1="308.16" x2="505.15" y2="308.16"/>
  <line class="cls-2" x1="494.62" y1="305.96" x2="505.15" y2="305.96"/>
  <line class="cls-2" x1="494.62" y1="304.05" x2="505.15" y2="304.05"/>
  <line class="cls-2" x1="494.62" y1="301.58" x2="505.15" y2="301.58"/>
  <line class="cls-2" x1="494.62" y1="299.21" x2="505.15" y2="299.21"/>
  <line class="cls-2" x1="494.62" y1="296.74" x2="505.15" y2="296.74"/>
  <line class="cls-2" x1="493.85" y1="294.71" x2="505.15" y2="294.71"/>
  <line class="cls-2" x1="482.01" y1="294.71" x2="470.46" y2="294.71"/>
  <line class="cls-2" x1="482.01" y1="296.74" x2="470.46" y2="296.74"/>
  <line class="cls-2" x1="482.01" y1="299.21" x2="470.46" y2="299.21"/>
  <line class="cls-2" x1="482.01" y1="301.58" x2="470.46" y2="301.58"/>
  <line class="cls-2" x1="482.01" y1="304.05" x2="470.46" y2="304.05"/>
  <line class="cls-2" x1="482.01" y1="305.96" x2="470.46" y2="305.96"/>
  <line class="cls-2" x1="482.01" y1="308.16" x2="470.46" y2="308.16"/>
  <line class="cls-2" x1="482.01" y1="310.76" x2="470.46" y2="310.76"/>
  <line class="cls-2" x1="482.01" y1="313.39" x2="470.46" y2="313.39"/>
  <line class="cls-2" x1="493.85" y1="313.39" x2="493.85" y2="325.21"/>
  <line class="cls-2" x1="491.38" y1="313.39" x2="491.38" y2="324.52"/>
  <line class="cls-2" x1="489.43" y1="313.39" x2="489.43" y2="325.21"/>
  <line class="cls-2" x1="487.81" y1="313.39" x2="487.81" y2="325.21"/>
  <line class="cls-2" x1="485.79" y1="313.39" x2="485.79" y2="324.52"/>
  <line class="cls-2" x1="483.98" y1="313.39" x2="483.98" y2="325.21"/>
  <line class="cls-2" x1="482.01" y1="313.39" x2="482.01" y2="325.21"/>
  <line class="cls-2" x1="237.61" y1="169.97" x2="256.04" y2="169.97"/>
  <line class="cls-2" x1="256.04" y1="187.75" x2="256.04" y2="169.97"/>
  <line class="cls-2" x1="200.75" y1="138.1" x2="200.75" y2="152.19"/>
  <line class="cls-2" x1="299.64" y1="97.55" x2="299.64" y2="135.83"/>
  <line class="cls-2" x1="390.13" y1="135.83" x2="299.64" y2="135.83"/>
  <line class="cls-2" x1="325.82" y1="97.55" x2="325.82" y2="135.83"/>
  <line class="cls-2" x1="349.05" y1="97.55" x2="390.13" y2="97.55"/>
  <line class="cls-2" x1="376.56" y1="97.55" x2="376.56" y2="135.83"/>
  <line class="cls-2" x1="426.09" y1="88.64" x2="388.4" y2="88.64"/>
  <line class="cls-2" x1="388.4" y1="70.89" x2="388.4" y2="88.64"/>
  <line class="cls-2" x1="409.84" y1="70.89" x2="409.84" y2="88.64"/>
  <line class="cls-2" x1="399.83" y1="88.64" x2="399.83" y2="112.56"/>
  <line class="cls-2" x1="376.56" y1="112.56" x2="399.83" y2="112.56"/>
  <line class="cls-2" x1="376.56" y1="123.55" x2="390.13" y2="123.55"/>
  <line class="cls-2" x1="390.13" y1="112.56" x2="390.13" y2="135.83"/>
  <line class="cls-2" x1="357.81" y1="70.89" x2="357.81" y2="83.71"/>
  <line class="cls-2" x1="377.21" y1="70.89" x2="377.21" y2="88.64"/>
  <line class="cls-2" x1="365.07" y1="71.78" x2="365.34" y2="79.76"/>
  <line class="cls-2" x1="388.4" y1="88.64" x2="365.21" y2="88.64"/>
  <line class="cls-2" x1="349.05" y1="83.71" x2="365.07" y2="83.71"/>
  <line class="cls-2" x1="365.07" y1="71.78" x2="365.07" y2="88.64"/>
  <line class="cls-2" x1="275.16" y1="156.21" x2="275.16" y2="181.35"/>
  <line class="cls-2" x1="341.81" y1="156.21" x2="341.81" y2="181.35"/>
  <line class="cls-2" x1="275.16" y1="156.21" x2="341.81" y2="156.21"/>
  <line class="cls-2" x1="275.16" y1="181.35" x2="341.81" y2="181.35"/>
  <line class="cls-2" x1="339.34" y1="156.21" x2="339.34" y2="181.35"/>
  <line class="cls-2" x1="336.86" y1="156.21" x2="336.86" y2="181.35"/>
  <line class="cls-2" x1="334.39" y1="156.21" x2="334.39" y2="181.35"/>
  <line class="cls-2" x1="331.34" y1="156.21" x2="331.34" y2="181.35"/>
  <line class="cls-2" x1="327.72" y1="156.21" x2="327.72" y2="181.35"/>
  <line class="cls-2" x1="324.82" y1="156.21" x2="324.82" y2="181.35"/>
  <line class="cls-2" x1="321.44" y1="156.21" x2="321.44" y2="181.35"/>
  <line class="cls-2" x1="318.39" y1="156.21" x2="318.39" y2="181.35"/>
  <line class="cls-2" x1="315.72" y1="156.21" x2="315.72" y2="181.35"/>
  <line class="cls-2" x1="303.54" y1="156.21" x2="303.54" y2="181.35"/>
  <line class="cls-2" x1="299.64" y1="156.21" x2="299.64" y2="181.35"/>
  <line class="cls-2" x1="296.3" y1="156.53" x2="296.3" y2="181.35"/>
  <line class="cls-2" x1="293.06" y1="156.21" x2="293.06" y2="181.35"/>
  <line class="cls-2" x1="290.25" y1="156.21" x2="290.25" y2="181.35"/>
  <line class="cls-2" x1="287.16" y1="156.21" x2="287.16" y2="181.35"/>
  <line class="cls-2" x1="283.92" y1="156.21" x2="283.92" y2="181.35"/>
  <line class="cls-2" x1="280.87" y1="156.21" x2="280.87" y2="181.35"/>
  <line class="cls-2" x1="277.26" y1="156.21" x2="277.26" y2="181.35"/>
  <line class="cls-2" x1="466" y1="189.5" x2="466" y2="257.84"/>
  <line class="cls-2" x1="508.98" y1="189.5" x2="508.98" y2="213.72"/>
  <line class="cls-2" x1="537.26" y1="189.5" x2="537.26" y2="257.84"/>
  <line class="cls-2" x1="466" y1="213.72" x2="537.26" y2="213.72"/>
  <line class="cls-2" x1="466" y1="257.84" x2="537.26" y2="257.84"/>
  <line class="cls-2" x1="516.27" y1="228.43" x2="516.27" y2="257.84"/>
  <line class="cls-2" x1="537.26" y1="228.15" x2="516.27" y2="228.15"/>
  <line class="cls-2" x1="211.53" y1="160.75" x2="211.53" y2="179"/>
  <line class="cls-2" x1="229.78" y1="160.75" x2="212.1" y2="160.75"/>
  <line class="cls-2" x1="229.78" y1="179.42" x2="229.78" y2="160.75"/>
  <line class="cls-2" x1="212.1" y1="178.86" x2="229.78" y2="178.86"/>
  <line class="cls-2" x1="225.53" y1="160.81" x2="225.53" y2="152.25"/>
  <line class="cls-2" x1="223.34" y1="160.75" x2="223.34" y2="152.19"/>
  <line class="cls-2" x1="221.15" y1="160.81" x2="221.15" y2="152.25"/>
  <line class="cls-2" x1="219.18" y1="160.81" x2="219.18" y2="152.25"/>
  <line class="cls-2" x1="216.91" y1="160.81" x2="216.91" y2="152.25"/>
  <line class="cls-2" x1="215.35" y1="160.81" x2="215.35" y2="152.25"/>
  <line class="cls-2" x1="213.51" y1="160.75" x2="213.51" y2="152.19"/>
  <line class="cls-2" x1="229.78" y1="162.17" x2="237.61" y2="162.17"/>
  <line class="cls-2" x1="229.78" y1="164.57" x2="237.61" y2="164.57"/>
  <line class="cls-2" x1="229.78" y1="167.12" x2="237.61" y2="167.12"/>
  <line class="cls-2" x1="229.78" y1="168.78" x2="237.61" y2="168.78"/>
  <line class="cls-2" x1="229.78" y1="170.79" x2="237.61" y2="170.79"/>
  <line class="cls-2" x1="229.78" y1="173.02" x2="237.61" y2="173.02"/>
  <line class="cls-2" x1="229.78" y1="175.46" x2="237.61" y2="175.46"/>
  <line class="cls-2" x1="229.78" y1="177.72" x2="237.61" y2="177.72"/>
  <line class="cls-2" x1="227.51" y1="178.86" x2="227.51" y2="187.75"/>
  <line class="cls-2" x1="224.97" y1="179" x2="224.97" y2="187.75"/>
  <line class="cls-2" x1="222.35" y1="178.8" x2="222.35" y2="188.27"/>
  <line class="cls-2" x1="220.21" y1="178.65" x2="220.21" y2="187.54"/>
  <line class="cls-2" x1="217.75" y1="179.42" x2="217.75" y2="186.78"/>
  <line class="cls-2" x1="215.35" y1="178.65" x2="215.35" y2="187.54"/>
  <line class="cls-2" x1="213.51" y1="178.86" x2="213.51" y2="187.75"/>
  <line class="cls-2" x1="241.51" y1="107.96" x2="175.94" y2="107.96"/>
  <line class="cls-2" x1="175.94" y1="134.21" x2="241.51" y2="134.21"/>
  <line class="cls-2" x1="215.35" y1="107.96" x2="215.35" y2="134.21"/>
  <line class="cls-2" x1="217.75" y1="107.96" x2="217.75" y2="134.21"/>
  <line class="cls-2" x1="220.21" y1="107.96" x2="220.21" y2="134.21"/>
  <line class="cls-2" x1="223.13" y1="107.96" x2="223.13" y2="134.21"/>
  <line class="cls-2" x1="225.53" y1="107.67" x2="225.53" y2="134.21"/>
  <line class="cls-2" x1="227.51" y1="107.96" x2="227.51" y2="134.21"/>
  <line class="cls-2" x1="229.78" y1="107.96" x2="229.78" y2="134.21"/>
  <line class="cls-2" x1="231.82" y1="107.96" x2="231.82" y2="134.21"/>
  <line class="cls-2" x1="233.69" y1="107.96" x2="233.69" y2="134.21"/>
  <line class="cls-2" x1="235.69" y1="107.96" x2="235.69" y2="133.98"/>
  <line class="cls-2" x1="237.61" y1="107.96" x2="237.61" y2="134.21"/>
  <line class="cls-2" x1="239.4" y1="107.67" x2="239.4" y2="134.21"/>
  <line class="cls-2" x1="241.51" y1="107.96" x2="241.51" y2="134.21"/>
  <line class="cls-2" x1="200.75" y1="107.35" x2="200.75" y2="134.21"/>
  <line class="cls-2" x1="198.54" y1="107.35" x2="198.54" y2="134.21"/>
  <line class="cls-2" x1="196.53" y1="107.96" x2="196.53" y2="134.21"/>
  <line class="cls-2" x1="193.9" y1="107.96" x2="193.9" y2="134.21"/>
  <line class="cls-2" x1="191.58" y1="107.96" x2="191.58" y2="134.21"/>
  <line class="cls-2" x1="189.48" y1="107.35" x2="189.48" y2="134.21"/>
  <line class="cls-2" x1="186.93" y1="107.96" x2="186.93" y2="134.21"/>
  <line class="cls-2" x1="184.46" y1="107.96" x2="184.46" y2="134.21"/>
  <line class="cls-2" x1="181.89" y1="107.96" x2="181.89" y2="134.21"/>
  <line class="cls-2" x1="179.35" y1="107.96" x2="179.35" y2="134.21"/>
  <line class="cls-2" x1="175.94" y1="107.96" x2="175.94" y2="134.21"/>
  <line class="cls-2" x1="477.81" y1="26.67" x2="477.81" y2="41.12"/>
  <line class="cls-2" x1="495.06" y1="26.67" x2="477.81" y2="26.67"/>
  <line class="cls-2" x1="495.06" y1="41.12" x2="477.81" y2="41.12"/>
  <line class="cls-2" x1="495.06" y1="26.67" x2="495.06" y2="41.12"/>
  <line class="cls-2" x1="477.81" y1="41.12" x2="477.81" y2="50.77"/>
  <line class="cls-2" x1="479.49" y1="41.12" x2="479.49" y2="50.77"/>
  <line class="cls-2" x1="481.48" y1="41.12" x2="481.48" y2="50.77"/>
  <line class="cls-2" x1="483.19" y1="41.12" x2="483.19" y2="50.77"/>
  <line class="cls-2" x1="484.87" y1="41.12" x2="484.87" y2="50.77"/>
  <line class="cls-2" x1="486.43" y1="41.12" x2="486.43" y2="50.77"/>
  <line class="cls-2" x1="488.56" y1="41.12" x2="488.56" y2="50.77"/>
  <line class="cls-2" x1="489.91" y1="41.12" x2="489.91" y2="50.77"/>
  <line class="cls-2" x1="491.7" y1="41.12" x2="491.7" y2="50.77"/>
  <line class="cls-2" x1="493.49" y1="41.12" x2="493.49" y2="50.77"/>
  <line class="cls-2" x1="495.06" y1="41.12" x2="495.06" y2="50.2"/>
  <line class="cls-2" x1="495.06" y1="26.67" x2="495.06" y2="16.48"/>
  <line class="cls-2" x1="493.49" y1="26" x2="493.49" y2="16.48"/>
  <line class="cls-2" x1="491.7" y1="26" x2="491.7" y2="16.48"/>
  <line class="cls-2" x1="489.91" y1="26.67" x2="489.91" y2="16.48"/>
  <line class="cls-2" x1="488.56" y1="26.67" x2="488.56" y2="16.48"/>
  <line class="cls-2" x1="486.43" y1="26.67" x2="486.43" y2="16.48"/>
  <line class="cls-2" x1="484.87" y1="26.67" x2="484.87" y2="16.48"/>
  <line class="cls-2" x1="483.19" y1="26.67" x2="483.19" y2="16.48"/>
  <line class="cls-2" x1="481.48" y1="26" x2="481.48" y2="16.48"/>
  <line class="cls-2" x1="479.49" y1="26" x2="479.49" y2="16.48"/>
  <line class="cls-2" x1="477.81" y1="26.67" x2="477.81" y2="16.48"/>
  <line class="cls-2" x1="477.81" y1="41.12" x2="468.91" y2="41.12"/>
  <line class="cls-2" x1="477.81" y1="39.33" x2="468.91" y2="39.33"/>
  <line class="cls-2" x1="477.81" y1="37.43" x2="468.91" y2="37.43"/>
  <line class="cls-2" x1="477.81" y1="35.75" x2="468.91" y2="35.75"/>
  <line class="cls-2" x1="477.81" y1="33.9" x2="468.91" y2="33.9"/>
  <line class="cls-2" x1="477.36" y1="32.13" x2="468.91" y2="32.13"/>
  <line class="cls-2" x1="477.36" y1="30.37" x2="468.91" y2="30.37"/>
  <line class="cls-2" x1="477.81" y1="28.35" x2="468.91" y2="28.35"/>
  <line class="cls-2" x1="477.81" y1="26.67" x2="468.91" y2="26.67"/>
  <line class="cls-2" x1="251.07" y1="107.96" x2="251.07" y2="138.1"/>
  <line class="cls-2" x1="272.47" y1="98.57" x2="272.47" y2="138.1"/>
  <line class="cls-2" x1="227.51" y1="161.53" x2="227.51" y2="152.25"/>
  <text class="cls-1" transform="translate(461.46 150.35)"><tspan class="cls-5" x="0" y="0">A</tspan><tspan x="7.2" y="0">udi</tspan><tspan class="cls-4" x="23.39" y="0">t</tspan><tspan x="27.29" y="0">o</tspan><tspan class="cls-6" x="33.88" y="0">r</tspan><tspan x="37.85" y="0">ium</tspan></text>
  <text class="cls-1" transform="translate(438.34 44.19)"><tspan x="0" y="0">1.1</tspan></text>
</svg>