<?xml version="1.0" encoding="UTF-8"?>
<svg id="Outline" xmlns="http://www.w3.org/2000/svg" viewBox="0 0 607.24 346.14">
  <defs>
    <style>
      .cls-1 {
        font-size: 12px;
      }

      .cls-1, .cls-2 {
        font-family: MyriadPro-Regular, 'Myriad Pro';
      }

      .cls-2 {
        font-size: 11.05px;
      }

      .cls-3, .cls-4 {
        fill: none;
        stroke: #000;
        stroke-miterlimit: 10;
      }

      .cls-4 {
        stroke-width: 2px;
      }
    </style>
  </defs>
  <line class="cls-4" x1="552.06" y1="16.57" x2="449.19" y2="16.57"/>
  <line class="cls-4" x1="450.27" y1="72.52" x2="450.27" y2="15.61"/>
  <line class="cls-4" x1="366.56" y1="72.52" x2="450.27" y2="72.52"/>
  <line class="cls-4" x1="366.56" y1="99.31" x2="366.56" y2="71.72"/>
  <line class="cls-4" x1="268.36" y1="99.31" x2="366.56" y2="99.31"/>
  <line class="cls-4" x1="268.36" y1="109.09" x2="268.36" y2="99.31"/>
  <line class="cls-4" x1="169.98" y1="109.09" x2="268.36" y2="109.09"/>
  <line class="cls-4" x1="169.98" y1="190.66" x2="169.98" y2="109.09"/>
  <line class="cls-4" x1="268.36" y1="190.66" x2="169.98" y2="190.66"/>
  <line class="cls-4" x1="268.36" y1="240.14" x2="268.36" y2="190.66"/>
  <line class="cls-4" x1="367.73" y1="240.14" x2="268.36" y2="240.14"/>
  <line class="cls-4" x1="367.73" y1="289.04" x2="367.73" y2="240.14"/>
  <line class="cls-4" x1="440.3" y1="289.04" x2="367.73" y2="289.04"/>
  <line class="cls-4" x1="440.3" y1="289.04" x2="450.27" y2="289.04"/>
  <line class="cls-4" x1="450.27" y1="331.49" x2="450.27" y2="289.04"/>
  <line class="cls-4" x1="546.7" y1="331.49" x2="450.27" y2="331.49"/>
  <line class="cls-4" x1="546.7" y1="247.77" x2="546.7" y2="331.49"/>
  <line class="cls-4" x1="470.16" y1="247.54" x2="546.7" y2="247.77"/>
  <line class="cls-4" x1="470" y1="205.75" x2="470" y2="247.54"/>
  <line class="cls-4" x1="379.98" y1="206.66" x2="470" y2="206.66"/>
  <line class="cls-4" x1="379.98" y1="152.7" x2="379.98" y2="206.66"/>
  <line class="cls-4" x1="470" y1="152.23" x2="379.98" y2="152.23"/>
  <line class="cls-4" x1="470" y1="99.31" x2="470" y2="153.17"/>
  <line class="cls-4" x1="546.69" y1="99.31" x2="470" y2="99.31"/>
  <line class="cls-4" x1="546.69" y1="152.23" x2="546.69" y2="99.31"/>
  <line class="cls-4" x1="561.75" y1="152.23" x2="546.69" y2="152.23"/>
  <line class="cls-3" x1="210.46" y1="109.09" x2="210.46" y2="190.66"/>
  <line class="cls-3" x1="210.46" y1="155.34" x2="267.14" y2="155.34"/>
  <line class="cls-3" x1="267.14" y1="190.21" x2="267.14" y2="155.34"/>
  <line class="cls-3" x1="247.99" y1="190.21" x2="247.99" y2="155.34"/>
  <line class="cls-3" x1="221.49" y1="164.85" x2="239.5" y2="164.85"/>
  <line class="cls-3" x1="239.5" y1="182.09" x2="239.5" y2="164.85"/>
  <line class="cls-3" x1="221.49" y1="182.09" x2="239.5" y2="182.09"/>
  <line class="cls-3" x1="221.49" y1="164.85" x2="221.49" y2="182.09"/>
  <line class="cls-3" x1="247.99" y1="174.23" x2="267.14" y2="174.23"/>
  <line class="cls-3" x1="268.36" y1="109.09" x2="268.36" y2="140.63"/>
  <line class="cls-3" x1="249.26" y1="109.09" x2="249.26" y2="130.23"/>
  <line class="cls-3" x1="268.36" y1="130.23" x2="249.26" y2="130.23"/>
  <line class="cls-3" x1="222.38" y1="155.34" x2="222.38" y2="164.85"/>
  <line class="cls-3" x1="224.54" y1="155.34" x2="224.54" y2="164.85"/>
  <line class="cls-3" x1="226.56" y1="155.34" x2="226.56" y2="164.85"/>
  <line class="cls-3" x1="228.47" y1="155.34" x2="228.47" y2="164.85"/>
  <line class="cls-3" x1="230.5" y1="155.34" x2="230.5" y2="164.85"/>
  <line class="cls-3" x1="232.52" y1="155.34" x2="232.52" y2="164.85"/>
  <line class="cls-3" x1="234.69" y1="155.34" x2="234.69" y2="164.85"/>
  <line class="cls-3" x1="236.28" y1="155.34" x2="236.28" y2="164.85"/>
  <line class="cls-3" x1="237.92" y1="155.34" x2="237.92" y2="164.85"/>
  <line class="cls-3" x1="239.5" y1="155.34" x2="239.5" y2="164.85"/>
  <line class="cls-3" x1="239.5" y1="189.99" x2="239.5" y2="182.09"/>
  <line class="cls-3" x1="237.48" y1="190.21" x2="237.48" y2="182.09"/>
  <line class="cls-3" x1="235.95" y1="190.21" x2="235.95" y2="182.09"/>
  <line class="cls-3" x1="234.2" y1="190.21" x2="234.2" y2="182.09"/>
  <line class="cls-3" x1="231.96" y1="189.99" x2="231.96" y2="182.09"/>
  <line class="cls-3" x1="230.1" y1="190.21" x2="230.1" y2="182.09"/>
  <line class="cls-3" x1="228.47" y1="189.99" x2="228.47" y2="182.09"/>
  <line class="cls-3" x1="226.56" y1="189.99" x2="226.56" y2="182.09"/>
  <line class="cls-3" x1="224.54" y1="190.66" x2="224.54" y2="182.09"/>
  <line class="cls-3" x1="222.77" y1="190.21" x2="222.77" y2="182.09"/>
  <line class="cls-3" x1="268.36" y1="140.63" x2="397.37" y2="140.63"/>
  <line class="cls-3" x1="397.37" y1="99.31" x2="397.37" y2="140.63"/>
  <line class="cls-3" x1="366.56" y1="99.31" x2="397.37" y2="99.31"/>
  <line class="cls-3" x1="409.53" y1="72.52" x2="409.53" y2="88.87"/>
  <line class="cls-3" x1="430.68" y1="72.52" x2="430.68" y2="99.31"/>
  <line class="cls-3" x1="450.27" y1="72.52" x2="450.27" y2="99.31"/>
  <line class="cls-3" x1="430.68" y1="99.31" x2="450.27" y2="99.31"/>
  <line class="cls-3" x1="406.2" y1="88.87" x2="430.68" y2="88.87"/>
  <line class="cls-3" x1="406.2" y1="112.85" x2="406.2" y2="88.87"/>
  <line class="cls-3" x1="430.68" y1="112.85" x2="406.2" y2="112.85"/>
  <line class="cls-3" x1="430.68" y1="99.31" x2="430.68" y2="112.85"/>
  <line class="cls-3" x1="452.17" y1="152.23" x2="452.17" y2="116.35"/>
  <line class="cls-3" x1="470" y1="117.02" x2="452.17" y2="117.02"/>
  <line class="cls-3" x1="450.27" y1="72.52" x2="492.32" y2="72.52"/>
  <line class="cls-3" x1="492.32" y1="60.38" x2="492.32" y2="72.52"/>
  <line class="cls-3" x1="513.81" y1="60.55" x2="492.32" y2="60.55"/>
  <line class="cls-3" x1="492.32" y1="72.52" x2="513.81" y2="72.52"/>
  <line class="cls-3" x1="513.81" y1="60.55" x2="513.81" y2="72.52"/>
  <line class="cls-3" x1="492.32" y1="16.57" x2="492.32" y2="51.22"/>
  <line class="cls-3" x1="531.8" y1="51.05" x2="492.32" y2="51.05"/>
  <line class="cls-3" x1="531.8" y1="16.28" x2="531.8" y2="51.05"/>
  <line class="cls-3" x1="503.06" y1="26.4" x2="503.06" y2="41.23"/>
  <line class="cls-3" x1="521.3" y1="26.4" x2="503.06" y2="26.4"/>
  <line class="cls-3" x1="521.3" y1="41.23" x2="503.06" y2="41.23"/>
  <line class="cls-3" x1="521.3" y1="26.4" x2="521.3" y2="41.23"/>
  <line class="cls-3" x1="504.86" y1="17.13" x2="504.86" y2="26.4"/>
  <line class="cls-3" x1="506.74" y1="16.59" x2="506.74" y2="26.4"/>
  <line class="cls-3" x1="508.9" y1="16.32" x2="508.9" y2="26.4"/>
  <line class="cls-3" x1="511.46" y1="16.18" x2="511.46" y2="26.4"/>
  <line class="cls-3" x1="513.81" y1="15.61" x2="513.81" y2="26.4"/>
  <line class="cls-3" x1="516.04" y1="16.28" x2="516.04" y2="26.4"/>
  <line class="cls-3" x1="518.47" y1="16.32" x2="518.47" y2="26.4"/>
  <line class="cls-3" x1="521.3" y1="16.28" x2="521.3" y2="26.4"/>
  <line class="cls-3" x1="504.86" y1="51.05" x2="504.86" y2="41.23"/>
  <line class="cls-3" x1="506.74" y1="51.05" x2="506.74" y2="41.23"/>
  <line class="cls-3" x1="508.9" y1="51.05" x2="508.9" y2="41.23"/>
  <line class="cls-3" x1="511.46" y1="51.05" x2="511.46" y2="41.23"/>
  <line class="cls-3" x1="513.81" y1="51.22" x2="513.81" y2="41.23"/>
  <line class="cls-3" x1="516.04" y1="51.22" x2="516.04" y2="41.23"/>
  <line class="cls-3" x1="518.47" y1="51.05" x2="518.47" y2="41.23"/>
  <line class="cls-3" x1="521.3" y1="51.22" x2="521.3" y2="41.23"/>
  <line class="cls-3" x1="531.8" y1="51.05" x2="531.8" y2="98.26"/>
  <line class="cls-3" x1="513.81" y1="72.52" x2="513.81" y2="98.26"/>
  <line class="cls-3" x1="513.81" y1="88.02" x2="542.46" y2="88.02"/>
  <line class="cls-3" x1="542.46" y1="17.13" x2="542.46" y2="99.31"/>
  <line class="cls-3" x1="531.8" y1="77.64" x2="542.46" y2="77.64"/>
  <line class="cls-3" x1="531.8" y1="61.33" x2="542.46" y2="61.33"/>
  <line class="cls-3" x1="532.48" y1="42.19" x2="542.46" y2="42.19"/>
  <line class="cls-3" x1="532.48" y1="29.26" x2="542.46" y2="29.26"/>
  <line class="cls-3" x1="451.89" y1="206.66" x2="451.89" y2="247.54"/>
  <line class="cls-3" x1="470" y1="247.54" x2="451.89" y2="247.54"/>
  <line class="cls-3" x1="449.57" y1="288.38" x2="449.71" y2="278.6"/>
  <line class="cls-3" x1="440.3" y1="289.04" x2="440.3" y2="278.12"/>
  <line class="cls-3" x1="494.91" y1="278.6" x2="440.3" y2="278.6"/>
  <line class="cls-3" x1="494.91" y1="331.49" x2="494.7" y2="278.12"/>
  <line class="cls-3" x1="532.21" y1="331.49" x2="532.21" y2="289.63"/>
  <line class="cls-3" x1="494.91" y1="289.63" x2="532.21" y2="289.63"/>
  <line class="cls-3" x1="532.21" y1="307.87" x2="546.7" y2="307.87"/>
  <line class="cls-3" x1="506.64" y1="300.73" x2="506.64" y2="320.6"/>
  <line class="cls-3" x1="521.12" y1="300.67" x2="521.12" y2="320.72"/>
  <line class="cls-3" x1="506.64" y1="320.6" x2="521.12" y2="320.6"/>
  <line class="cls-3" x1="506.64" y1="300.73" x2="521.12" y2="300.73"/>
  <line class="cls-3" x1="494.91" y1="300.73" x2="506.64" y2="300.73"/>
  <line class="cls-3" x1="494.91" y1="302.42" x2="506.64" y2="302.42"/>
  <line class="cls-3" x1="494.91" y1="304.18" x2="506.64" y2="304.18"/>
  <line class="cls-3" x1="494.91" y1="306.12" x2="506.64" y2="306.12"/>
  <line class="cls-3" x1="494.91" y1="307.87" x2="506.64" y2="307.87"/>
  <line class="cls-3" x1="494.35" y1="309.63" x2="506.64" y2="309.63"/>
  <line class="cls-3" x1="494.91" y1="311.32" x2="506.64" y2="311.32"/>
  <line class="cls-3" x1="494.91" y1="313.27" x2="506.64" y2="313.27"/>
  <line class="cls-3" x1="494.91" y1="315.15" x2="506.64" y2="315.15"/>
  <line class="cls-3" x1="494.91" y1="316.78" x2="506.64" y2="316.78"/>
  <line class="cls-3" x1="521.12" y1="300.73" x2="532.21" y2="300.73"/>
  <line class="cls-3" x1="521.12" y1="302.42" x2="532.21" y2="302.42"/>
  <line class="cls-3" x1="521.43" y1="304.18" x2="532.21" y2="304.18"/>
  <line class="cls-3" x1="521.43" y1="306.12" x2="532.21" y2="306.12"/>
  <line class="cls-3" x1="521.43" y1="307.87" x2="532.21" y2="307.87"/>
  <line class="cls-3" x1="521.43" y1="309.63" x2="532.21" y2="309.63"/>
  <line class="cls-3" x1="521.12" y1="311.32" x2="532.21" y2="311.32"/>
  <line class="cls-3" x1="520.68" y1="313.27" x2="532.21" y2="313.27"/>
  <line class="cls-3" x1="520.9" y1="315.15" x2="531.99" y2="315.15"/>
  <line class="cls-3" x1="520.93" y1="316.78" x2="532.59" y2="316.78"/>
  <line class="cls-3" x1="288.86" y1="154.4" x2="288.86" y2="203.96"/>
  <line class="cls-3" x1="362.09" y1="154.4" x2="288.86" y2="154.4"/>
  <line class="cls-3" x1="362.09" y1="203.96" x2="362.09" y2="154.4"/>
  <line class="cls-3" x1="288.86" y1="203.96" x2="362.09" y2="203.96"/>
  <line class="cls-3" x1="288.86" y1="158.88" x2="359.28" y2="158.88"/>
  <line class="cls-3" x1="288.86" y1="184" x2="359.28" y2="184"/>
  <line class="cls-3" x1="357.97" y1="158.88" x2="357.97" y2="184"/>
  <line class="cls-3" x1="354.46" y1="158.88" x2="354.46" y2="183.55"/>
  <line class="cls-3" x1="351.21" y1="158.88" x2="351.21" y2="184"/>
  <line class="cls-3" x1="349.08" y1="158.88" x2="349.08" y2="184"/>
  <line class="cls-3" x1="346.61" y1="158.88" x2="346.61" y2="184"/>
  <line class="cls-3" x1="343.7" y1="158.88" x2="343.7" y2="184"/>
  <line class="cls-3" x1="340.89" y1="158.88" x2="340.89" y2="184"/>
  <line class="cls-3" x1="338.54" y1="158.88" x2="338.54" y2="184"/>
  <line class="cls-3" x1="336.18" y1="158.88" x2="336.18" y2="184"/>
  <line class="cls-3" x1="332.87" y1="158.88" x2="332.87" y2="184"/>
  <line class="cls-3" x1="318.47" y1="158.88" x2="318.47" y2="184"/>
  <line class="cls-3" x1="314.77" y1="158.88" x2="314.77" y2="184"/>
  <line class="cls-3" x1="311.74" y1="158.88" x2="311.74" y2="184"/>
  <line class="cls-3" x1="308.6" y1="158.88" x2="308.6" y2="184"/>
  <line class="cls-3" x1="305.24" y1="158.88" x2="305.24" y2="184"/>
  <line class="cls-3" x1="302.32" y1="158.88" x2="302.32" y2="184"/>
  <line class="cls-3" x1="299.52" y1="158.88" x2="299.4" y2="184"/>
  <line class="cls-3" x1="296.38" y1="158.88" x2="296.38" y2="184"/>
  <line class="cls-3" x1="294.36" y1="158.88" x2="294.36" y2="184"/>
  <line class="cls-3" x1="292.12" y1="158.88" x2="292.12" y2="184"/>
  <line class="cls-3" x1="385.71" y1="217.42" x2="385.71" y2="247.54"/>
  <line class="cls-3" x1="439.31" y1="217.42" x2="385.71" y2="217.42"/>
  <line class="cls-3" x1="439.31" y1="243.1" x2="439.31" y2="216.86"/>
  <line class="cls-3" x1="410.41" y1="243.1" x2="439.31" y2="243.1"/>
  <line class="cls-3" x1="410.41" y1="247.54" x2="410.41" y2="243.1"/>
  <line class="cls-3" x1="385.71" y1="247.54" x2="410.41" y2="247.54"/>
  <line class="cls-3" x1="395.77" y1="217.82" x2="395.77" y2="235.46"/>
  <line class="cls-3" x1="385.71" y1="234.97" x2="425.6" y2="234.97"/>
  <line class="cls-3" x1="412.12" y1="217.42" x2="412.12" y2="243.1"/>
  <line class="cls-3" x1="412.51" y1="226.64" x2="425.6" y2="226.64"/>
  <line class="cls-3" x1="397.37" y1="109.93" x2="406.2" y2="109.93"/>
  <text class="cls-2" transform="translate(182.49 155.34) scale(1.09 1)"><tspan x="0" y="0">2.8</tspan></text>
  <text class="cls-1" transform="translate(561.07 67.91)"><tspan x="0" y="0">2.21</tspan></text>
  <line class="cls-3" x1="512.18" y1="64.53" x2="557.3" y2="63.79"/>
  <rect class="cls-3" x="557.32" y="56.74" width="26.66" height="14.11"/>
</svg>